<svg width="402" height="298" viewBox="0 0 402 298" fill="none" xmlns="http://www.w3.org/2000/svg">
<path d="M339.12 61.4546C314.87 61.4546 293.824 75.1891 283.348 95.2768C272.872 75.1891 251.826 61.4546 227.576 61.4546C203.327 61.4546 182.561 75.0022 171.992 94.9031C161.445 75.0256 140.516 61.4546 116.407 61.4546C90.4038 61.4546 68.0952 77.2212 58.5076 99.7148V29.2207C58.531 13.0804 45.4124 0 29.2538 0C13.0952 0 0 13.0804 0 29.2207V157.829C0 173.97 13.0952 187.05 29.2538 187.05C45.4124 187.05 58.5076 173.97 58.5076 157.829V148.79C68.0718 171.283 90.3804 187.05 116.407 187.05C140.516 187.05 161.422 173.502 171.992 153.602C177.885 164.697 187.004 173.829 198.112 179.716C178.235 190.273 164.696 211.155 164.696 235.191C164.696 269.877 192.851 298 227.576 298C262.302 298 290.457 269.877 290.457 235.191C290.457 211.132 276.917 190.273 257.041 179.716C268.265 173.759 277.478 164.486 283.348 153.204C293.824 173.292 314.87 187.027 339.12 187.027C373.845 187.027 402 158.904 402 124.217C402 89.5308 373.845 61.4079 339.12 61.4079V61.4546ZM116.407 143.347C105.861 143.347 97.3022 134.798 97.3022 124.264C97.3022 113.73 105.861 105.181 116.407 105.181C126.954 105.181 135.512 113.73 135.512 124.264C135.512 134.798 126.954 143.347 116.407 143.347ZM227.576 105.181C238.123 105.181 246.681 113.73 246.681 124.264C246.681 134.798 238.123 143.347 227.576 143.347C217.03 143.347 208.471 134.798 208.471 124.264C208.471 113.73 217.03 105.181 227.576 105.181ZM227.576 254.321C217.03 254.321 208.471 245.772 208.471 235.237C208.471 224.703 217.03 216.154 227.576 216.154C238.123 216.154 246.681 224.703 246.681 235.237C246.681 245.772 238.123 254.321 227.576 254.321ZM339.143 143.347C328.597 143.347 320.038 134.798 320.038 124.264C320.038 113.73 328.597 105.181 339.143 105.181C349.689 105.181 358.248 113.73 358.248 124.264C358.248 134.798 349.689 143.347 339.143 143.347Z" fill="black"/>
</svg>
